<?xml version="1.0" encoding="UTF-8"?>
<!DOCTYPE svg PUBLIC "-//W3C//DTD SVG 1.1//EN" "http://www.w3.org/Graphics/SVG/1.1/DTD/svg11.dtd">
<svg xmlns="http://www.w3.org/2000/svg" version="1.1" width="5692px" height="1224px" style="shape-rendering:geometricPrecision; text-rendering:geometricPrecision; image-rendering:optimizeQuality; fill-rule:evenodd; clip-rule:evenodd" xmlns:xlink="http://www.w3.org/1999/xlink">
<g><path style="opacity:0.993" fill="#0a1ebe" d="M 2846.5,-0.5 C 2894.17,-0.5 2941.83,-0.5 2989.5,-0.5C 2989.5,96.1667 2989.5,192.833 2989.5,289.5C 3097.83,289.5 3206.17,289.5 3314.5,289.5C 3314.5,329.167 3314.5,368.833 3314.5,408.5C 3206.17,408.5 3097.83,408.5 2989.5,408.5C 2989.33,577.834 2989.5,747.167 2990,916.5C 2990.38,958.306 3002.38,996.306 3026,1030.5C 3053.03,1064.11 3088.2,1083.27 3131.5,1088C 3174.38,1092.09 3215.38,1085.09 3254.5,1067C 3274.48,1057.68 3293.48,1046.85 3311.5,1034.5C 3327.66,1072.85 3343.33,1111.51 3358.5,1150.5C 3300.74,1194.98 3235.41,1219.31 3162.5,1223.5C 3152.5,1223.5 3142.5,1223.5 3132.5,1223.5C 3089.37,1222.14 3047.7,1213.31 3007.5,1197C 2929.76,1161.24 2880.26,1101.74 2859,1018.5C 2851.73,989.276 2847.73,959.61 2847,929.5C 2846.5,755.834 2846.33,582.167 2846.5,408.5C 2780.83,408.5 2715.17,408.5 2649.5,408.5C 2649.5,368.833 2649.5,329.167 2649.5,289.5C 2715.17,289.5 2780.83,289.5 2846.5,289.5C 2846.5,192.833 2846.5,96.1667 2846.5,-0.5 Z"/></g>
<g><path style="opacity:0.994" fill="#0a1ebe" d="M 470.5,1223.5 C 459.5,1223.5 448.5,1223.5 437.5,1223.5C 316.749,1217.55 213.915,1171.88 129,1086.5C 62.4649,1015.42 21.4649,931.422 6,834.5C 3.19618,816.09 1.02952,797.756 -0.5,779.5C -0.5,756.5 -0.5,733.5 -0.5,710.5C 6.4958,596.613 47.3291,496.946 122,411.5C 219.768,309.57 339.601,261.737 481.5,268C 572.903,271.911 655.903,299.911 730.5,352C 761.922,374.754 789.422,401.588 813,432.5C 813.5,384.834 813.667,337.168 813.5,289.5C 860.5,289.5 907.5,289.5 954.5,289.5C 954.5,592.833 954.5,896.167 954.5,1199.5C 907.5,1199.5 860.5,1199.5 813.5,1199.5C 813.667,1152.17 813.5,1104.83 813,1057.5C 749.889,1137.82 668.056,1188.99 567.5,1211C 535.363,1217.89 503.03,1222.06 470.5,1223.5 Z M 463.5,391.5 C 582.002,391.836 676.835,438.836 748,532.5C 801.31,611.079 822.31,697.746 811,792.5C 795.335,908.768 737.169,996.268 636.5,1055C 543.023,1103.46 446.69,1109.79 347.5,1074C 239.643,1029.12 172.477,949.624 146,835.5C 128.078,750.98 135.078,668.647 167,588.5C 211.194,491.319 285.027,429.152 388.5,402C 413.343,396.284 438.343,392.784 463.5,391.5 Z"/></g>
<g><path style="opacity:0.993" fill="#0a1ebe" d="M 2189.5,1223.5 C 2177.83,1223.5 2166.17,1223.5 2154.5,1223.5C 2027.26,1217.12 1919.76,1168.12 1832,1076.5C 1755.19,989.806 1714.53,888.139 1710,771.5C 1704.17,657.449 1733.17,553.449 1797,459.5C 1875.54,353.938 1980.38,291.438 2111.5,272C 2222.99,256.363 2326.66,277.697 2422.5,336C 2523.65,404.354 2587.49,498.521 2614,618.5C 2624.98,669.602 2629.15,721.269 2626.5,773.5C 2366.83,773.5 2107.17,773.5 1847.5,773.5C 1853.1,872.192 1892.1,954.692 1964.5,1021C 2043.73,1086.48 2134.4,1110.81 2236.5,1094C 2338.91,1077.92 2415.08,1024.75 2465,934.5C 2470.11,924.622 2474.94,914.622 2479.5,904.5C 2480.33,904.167 2481.17,903.833 2482,903.5C 2523.46,913.407 2564.96,923.074 2606.5,932.5C 2550.72,1081.44 2445.38,1174.28 2290.5,1211C 2257.02,1217.89 2223.35,1222.06 2189.5,1223.5 Z M 2169.5,391.5 C 2232.83,389.83 2291.49,405.33 2345.5,438C 2407.94,479.819 2449.77,536.985 2471,609.5C 2476.64,628.527 2480.81,647.861 2483.5,667.5C 2273.17,667.833 2062.83,667.5 1852.5,666.5C 1875.13,545.721 1943.13,461.887 2056.5,415C 2093.09,401.317 2130.75,393.484 2169.5,391.5 Z"/></g>
<g><path style="opacity:0.993" fill="#0a1ebe" d="M 3888.5,1223.5 C 3877.17,1223.5 3865.83,1223.5 3854.5,1223.5C 3712.33,1215.83 3596.5,1157.17 3507,1047.5C 3448.02,968.92 3415.69,880.253 3410,781.5C 3403.43,682.347 3423.43,589.014 3470,501.5C 3544.03,375.992 3653.2,300.159 3797.5,274C 3903.32,256.211 4003.65,272.211 4098.5,322C 4201.88,382.422 4270.71,470.255 4305,585.5C 4322.25,646.99 4329.42,709.656 4326.5,773.5C 4066.5,773.5 3806.5,773.5 3546.5,773.5C 3552.26,869.833 3589.93,951 3659.5,1017C 3739.21,1085.27 3831.21,1110.94 3935.5,1094C 4030.3,1080.06 4103.13,1032.89 4154,952.5C 4163.41,936.855 4171.91,920.688 4179.5,904C 4221.57,912.916 4263.57,922.416 4305.5,932.5C 4265.18,1046.32 4190.51,1129.16 4081.5,1181C 4019.79,1207.51 3955.45,1221.67 3888.5,1223.5 Z M 3868.5,391.5 C 3958.67,389.038 4035.51,419.371 4099,482.5C 4139.04,527.251 4165.38,579.251 4178,638.5C 4179.79,648.053 4181.62,657.553 4183.5,667C 3973.17,667.5 3762.83,667.667 3552.5,667.5C 3574.34,544.837 3643.01,460.337 3758.5,414C 3794.17,400.9 3830.84,393.4 3868.5,391.5 Z"/></g>
<g><path style="opacity:0.992" fill="#0a1ebe" d="M 4385.5,267.5 C 4443.74,267.169 4501.9,267.502 4560,268.5C 4639.41,410.329 4719.08,551.995 4799,693.5C 4877.83,551.833 4956.67,410.167 5035.5,268.5C 5093.5,267.167 5151.5,267.167 5209.5,268.5C 5126.95,413.097 5044.29,557.597 4961.5,702C 5053.37,860.232 5145.37,1018.4 5237.5,1176.5C 5179.27,1177.83 5121.1,1177.83 5063,1176.5C 4975.25,1021.34 4887.25,866.338 4799,711.5C 4709.66,866.174 4620.83,1021.17 4532.5,1176.5C 4474.5,1177.5 4416.5,1177.83 4358.5,1177.5C 4449.83,1018.69 4541.83,860.189 4634.5,702C 4551.1,557.356 4468.1,412.523 4385.5,267.5 Z"/></g>
<g><path style="opacity:0.992" fill="#f19032" d="M 5691.5,1175.5 C 5691.5,1176.17 5691.5,1176.83 5691.5,1177.5C 5633.5,1177.83 5575.5,1177.5 5517.5,1176.5C 5427.51,1018.68 5338.17,860.511 5249.5,702C 5329.01,557.158 5409.17,412.658 5490,268.5C 5548.1,267.169 5606.27,267.169 5664.5,268.5C 5581.63,413.082 5498.63,557.582 5415.5,702C 5507.36,860.002 5599.36,1017.84 5691.5,1175.5 Z"/></g>
<g><path style="opacity:0.994" fill="#0a1ebe" d="M 1592.5,280.5 C 1611.84,280.333 1631.17,280.5 1650.5,281C 1661.75,281.95 1672.75,284.117 1683.5,287.5C 1683.83,289.333 1684.17,291.167 1684.5,293C 1680.97,335.498 1677.47,377.998 1674,420.5C 1673.75,421.624 1673.25,422.624 1672.5,423.5C 1607.2,416.297 1543.53,423.463 1481.5,445C 1396.71,479.453 1335.88,538.62 1299,622.5C 1274.79,679.024 1260.79,738.024 1257,799.5C 1255.53,932.822 1255.03,1066.16 1255.5,1199.5C 1207.83,1199.5 1160.17,1199.5 1112.5,1199.5C 1112.5,896.167 1112.5,592.833 1112.5,289.5C 1160.17,289.5 1207.83,289.5 1255.5,289.5C 1255.33,362.834 1255.5,436.167 1256,509.5C 1290.69,445.473 1337.52,391.973 1396.5,349C 1455.63,308.567 1520.96,285.734 1592.5,280.5 Z"/></g>
</svg>
